<svg version="1.1" id="Layer_1" xmlns="http://www.w3.org/2000/svg" xmlns:xlink="http://www.w3.org/1999/xlink" x="0px" y="0px"
	 width="240" height="240" viewBox="100 100 340 240" style="enable-background:new 0 0 500 500;" xml:space="preserve">
	<style type="text/css">
		.st0{fill:#FFFFFF;}
	</style>
	<g>
		<path class="st0" d="M305.9,334.6c-14.36,8.13-30.93,12.82-48.61,12.82c-54.64,0-98.93-44.29-98.93-98.93
			c0-54.64,44.29-98.93,98.93-98.93s98.93,44.29,98.93,98.93c0,5.52-0.57,10.89-1.43,16.17c0.48-0.01,0.95-0.07,1.43-0.07
			c16.12,0,30.57,7.25,40.32,18.63c2.76-11.12,4.25-22.74,4.25-34.72c0-79.25-64.25-143.5-143.5-143.5
			c-79.25,0-143.5,64.25-143.5,143.5c0,79.25,64.25,143.5,143.5,143.5c29.77,0,57.41-9.07,80.34-24.58
			C322.72,361.81,310.99,349.74,305.9,334.6z"/>
		<circle class="st0" cx="356.22" cy="317.71" r="33.76"/>
	</g>
</svg>
